<?xml version="1.0" encoding="utf-8"?>
<!-- Generator: Adobe Illustrator 19.0.1, SVG Export Plug-In . SVG Version: 6.00 Build 0)  -->
<svg version="1.1" id="Capa_1" xmlns="http://www.w3.org/2000/svg" xmlns:xlink="http://www.w3.org/1999/xlink" x="0px" y="0px"
	 viewBox="-91 183.8 427.2 427.2" style="enable-background:new -91 183.8 427.2 427.2;" xml:space="preserve">
<path d="M170.3,209H79.4c-40.7,0-79,19.8-102.6,52.9l-0.2,0.3c-12.9,18.2-34,29-56.3,29c-3.6,0-6.5,2.9-6.5,6.5
	c0,3.6,2.9,6.5,6.5,6.5c26.5,0,51.5-12.9,66.9-34.5l0.2-0.3c21.1-29.7,55.5-47.4,92-47.4h90.9c12.6,0,22.8,10.2,22.8,22.8v90.1
	c0,19.1-15.6,34.7-34.7,34.7s-34.7-15.6-34.7-34.7v-66.3c0-3.6-2.9-6.5-6.5-6.5s-6.5,2.9-6.5,6.5v39.3h-8.6c-3.6,0-6.5,2.9-6.5,6.5
	v19.5c0,40.3-32.7,73-73,73c-3.6,0-6.5,2.9-6.5,6.5c0,3.6,2.9,6.5,6.5,6.5c47.4,0,86-38.6,86-86v-13h2.1v14
	c0,16.3,8.2,30.7,20.7,39.3c-1.4,4.4-2.1,8.9-2.1,13.6c0,16.2,8.7,30.4,21.6,38.3c-12.9,7.9-21.6,22.1-21.6,38.3
	c0,15.8,8.2,29.6,20.5,37.6c-13.6,7.7-22.8,22.3-22.8,39c0,12.4,5.1,23.7,13.3,31.8h-33.7c-53.2,0-105.3-18.5-146.7-52
	c-1.2-0.9-2.6-1.5-4.1-1.5h-40.3c-3.6,0-6.5,2.9-6.5,6.5s2.9,6.5,6.5,6.5h38c43.4,34.5,97.6,53.5,153.1,53.5h139.7
	c24.7,0,44.8-20.1,44.8-44.8c0-12.4-5.1-23.7-13.3-31.8h0.6c24.7,0,44.8-20.1,44.8-44.8c0-13.9-6.4-26.3-16.3-34.6
	c17.1-6.3,29.3-22.8,29.3-42.1c0-19.1-12.1-35.5-29-41.9c10.1-8.2,16.5-20.7,16.5-34.7c0-24.7-20.1-44.8-44.8-44.8h-72.7v-21.6
	C206.1,225.1,190,209,170.3,209z M246.2,509.4c17.5,0,31.8,14.3,31.8,31.8S263.7,573,246.2,573h-74.4c-17.5,0-31.8-14.3-31.8-31.8
	s14.3-31.8,31.8-31.8H246.2z M174,432.7L174,432.7h104.3l0,0l0,0c17.5,0,31.8,14.3,31.8,31.8s-14.3,31.8-31.8,31.8H174
	c-17.5,0-31.8-14.3-31.8-31.8S156.4,432.8,174,432.7z M201.2,356.1h90.1c17.5,0,31.8,14.3,31.8,31.8s-14.3,31.8-31.8,31.8H174h-0.1
	c-17.5,0-31.7-14.3-31.7-31.8c0-2.6,0.3-5.2,0.9-7.7c4.8,1.6,9.9,2.5,15.2,2.5C177.1,382.7,193.4,371.9,201.2,356.1z M206.1,335
	v-55.5h72.7c17.5,0,31.8,14.3,31.8,31.8s-14.3,31.8-31.8,31.8h-73.4C205.9,340.5,206.1,337.8,206.1,335z"/>
</svg>
