<?xml version="1.0" encoding="utf-8"?>
<!-- Generator: Adobe Illustrator 19.0.1, SVG Export Plug-In . SVG Version: 6.00 Build 0)  -->
<svg version="1.1" id="Capa_1" xmlns="http://www.w3.org/2000/svg" xmlns:xlink="http://www.w3.org/1999/xlink" x="0px" y="0px"
	 viewBox="-93 184.4 424.6 424.6" style="enable-background:new -93 184.4 424.6 424.6;" xml:space="preserve">
<path d="M64,253l-72.2,15.7c-36.4,6.4-66.8,30.5-81.4,64.4c-0.4,0.8-0.5,1.7-0.5,2.6c0,2.5,1.5,4.9,3.9,6c3.3,1.4,7.1-0.1,8.5-3.4
	c12.9-29.9,39.7-51.2,71.8-56.8c0.1,0,0.2,0,0.3-0.1l72.3-15.7c7.1-1.5,14.6,0,20.5,4.3c5.9,4.3,9.7,10.9,10.4,18.1l0.6,5.8
	L14,306.5c-3.2,0.5-5.5,3.3-5.5,6.4c0,0.3,0,0.6,0.1,1c0.5,3.6,3.8,6,7.4,5.5l242-36.2c5.7-0.8,11.3,0.6,15.9,4
	c4.6,3.4,7.6,8.4,8.5,14.1c0.8,5.7-0.6,11.3-4,15.9c-3.4,4.6-8.4,7.6-14.1,8.5l-155.4,23.3c-5.2,0.8-8.9,5.1-8.8,10.3
	c0.1,5.2,3.9,9.5,9,10.1l190.8,24.2c11.7,1.5,20.1,12.2,18.6,24c-0.7,5.7-3.6,10.8-8.1,14.3c-4.5,3.5-10.2,5-15.8,4.3L85.3,409.5
	c-3.6-0.5-6.8,2.1-7.3,5.6c-0.5,3.6,2.1,6.8,5.6,7.3L151,431c4.4,0.9,8.3,3.1,11.4,6.4c3.9,4.2,5.9,9.7,5.7,15.4
	c-0.2,5.7-2.6,11-6.8,14.9c-4.2,3.9-9.7,5.9-15.4,5.7L79.7,471c-3.6-0.1-6.6,2.7-6.7,6.3c0,0.1,0,0.2,0,0.2c0,3.5,2.8,6.4,6.3,6.5
	l38,1.4c11.8,0.4,21.1,10.4,20.7,22.2c-0.4,11.8-10.4,21.1-22.2,20.7l-93.3-3.8c0,0-0.1,0-0.1,0c-38.4-1.4-75.6-16-104.5-41.3
	c-2.7-2.4-6.8-2.1-9.2,0.6c-1.1,1.2-1.6,2.8-1.6,4.3c0,1.8,0.8,3.6,2.2,4.9c31.2,27.2,71.2,43,112.6,44.5l93.5,3.8
	c19,0.7,35-14.2,35.7-33.2c0.3-8.1-2.3-15.7-6.8-21.7l1.4,0c9.2,0.3,18-2.9,24.7-9.2c6.7-6.3,10.6-14.8,11-24
	c0.2-6.8-1.5-13.4-4.9-19l116.6,14.8c9.1,1.2,18.2-1.3,25.4-6.9c7.3-5.6,11.9-13.8,13.1-22.9c2.4-18.8-11-36.1-29.9-38.5
	l-171.6-21.7l136.2-20.4c9.1-1.4,17.1-6.2,22.6-13.6c5.5-7.4,7.7-16.5,6.4-25.6c-1.4-9.1-6.2-17.1-13.6-22.6
	c-7.4-5.5-16.5-7.7-25.6-6.4L111.1,292l-0.5-5.2c-1.1-10.9-6.8-20.9-15.7-27.3C86,253,74.7,250.6,64,253z"/>
</svg>
