<?xml version="1.0" encoding="iso-8859-1"?>
<!-- Generator: Adobe Illustrator 18.0.0, SVG Export Plug-In . SVG Version: 6.00 Build 0)  -->
<!DOCTYPE svg PUBLIC "-//W3C//DTD SVG 1.1//EN" "http://www.w3.org/Graphics/SVG/1.1/DTD/svg11.dtd">
<svg version="1.1" id="Capa_1" xmlns="http://www.w3.org/2000/svg" xmlns:xlink="http://www.w3.org/1999/xlink" x="0px" y="0px"
	 viewBox="0 0 427.183 427.183" style="enable-background:new 0 0 427.183 427.183;" xml:space="preserve">
<path d="M366.214,129.976h-21.621V57.313c0-24.708-20.102-44.809-44.81-44.809c-13.976,0-26.475,6.435-34.698,16.493
	C258.68,12.07,242.31,0,223.167,0c-19.277,0-35.747,12.236-42.058,29.348c-8.225-9.96-20.664-16.318-34.56-16.318
	c-24.708,0-44.809,20.101-44.809,44.809v0.563c-8.125-8.198-19.383-13.285-31.81-13.285c-24.708,0-44.809,20.101-44.809,44.809
	v139.655c0,55.446,18.966,109.714,53.454,153.087v38.013c0,3.59,2.91,6.5,6.5,6.5s6.5-2.91,6.5-6.5v-40.3
	c0-1.491-0.513-2.936-1.451-4.094c-33.534-41.359-52.003-93.46-52.003-146.707v-33.708c8.125,8.198,19.382,13.285,31.809,13.285
	c16.71,0,31.303-9.2,39.006-22.795c7.992,12.324,21.861,20.5,37.612,20.5c16.212,0,30.44-8.654,38.308-21.585
	c7.869,12.929,22.096,21.581,38.307,21.581c4.686,0,9.243-0.723,13.62-2.124c8.616,12.478,23.009,20.676,39.287,20.676h13.992v2.058
	h-13c-47.421,0-86,38.58-86,86c0,3.59,2.91,6.5,6.5,6.5s6.5-2.91,6.5-6.5c0-40.252,32.748-73,73-73h19.5c3.59,0,6.5-2.91,6.5-6.5
	v-8.558h39.326c3.59,0,6.5-2.91,6.5-6.5s-2.91-6.5-6.5-6.5h-66.318c-19.144,0-34.719-15.575-34.719-34.718
	s15.575-34.718,34.719-34.718h90.143c12.598,0,22.846,10.249,22.846,22.846v90.861c0,36.452-17.734,70.829-47.439,91.958
	l-0.291,0.207c-21.61,15.372-34.512,40.38-34.512,66.899c0,3.59,2.91,6.5,6.5,6.5s6.5-2.91,6.5-6.5
	c0-22.319,10.858-43.368,29.047-56.306l0.291-0.207c33.127-23.563,52.904-61.899,52.904-102.551v-90.861
	C402.06,146.056,385.98,129.976,366.214,129.976z M101.741,164.35c0,17.54-14.27,31.809-31.81,31.809
	c-17.539,0-31.809-14.27-31.809-31.809V89.927c0-17.54,14.27-31.809,31.809-31.809c17.54,0,31.81,14.269,31.81,31.809V164.35z
	 M146.549,193.864c-17.539,0-31.809-14.269-31.809-31.809V57.84c0-17.54,14.27-31.809,31.809-31.809S178.358,40.3,178.358,57.84
	v0.001h-0.004v104.21c0,0.027,0.002,0.053,0.002,0.079C178.315,179.635,164.063,193.864,146.549,193.864z M228.353,177.694
	c0,5.322,0.889,10.438,2.504,15.222c-2.494,0.62-5.064,0.945-7.693,0.945c-17.513,0-31.765-14.227-31.809-31.731
	c0-0.025,0.002-0.05,0.002-0.075V44.809c0-17.54,14.27-31.809,31.809-31.809s31.809,14.269,31.809,31.809v90.098
	C239.218,142.708,228.353,158.953,228.353,177.694z M267.975,130.677V57.313c0-17.54,14.27-31.809,31.81-31.809
	c17.539,0,31.809,14.269,31.809,31.809v72.663h-55.521C273.311,129.976,270.609,130.224,267.975,130.677z"/>
<g>
</g>
<g>
</g>
<g>
</g>
<g>
</g>
<g>
</g>
<g>
</g>
<g>
</g>
<g>
</g>
<g>
</g>
<g>
</g>
<g>
</g>
<g>
</g>
<g>
</g>
<g>
</g>
<g>
</g>
</svg>
