<?xml version="1.0" encoding="iso-8859-1"?>
<!-- Generator: Adobe Illustrator 18.0.0, SVG Export Plug-In . SVG Version: 6.00 Build 0)  -->
<!DOCTYPE svg PUBLIC "-//W3C//DTD SVG 1.1//EN" "http://www.w3.org/Graphics/SVG/1.1/DTD/svg11.dtd">
<svg version="1.1" id="Capa_1" xmlns="http://www.w3.org/2000/svg" xmlns:xlink="http://www.w3.org/1999/xlink" x="0px" y="0px"
	 viewBox="0 0 424.631 424.631" style="enable-background:new 0 0 424.631 424.631;" xml:space="preserve">
<path d="M349.569,236.768c-6.449-8.88-16.411-14.604-27.33-15.705l-5.217-0.526L338.72,75.691c1.364-9.102-0.898-18.19-6.37-25.59
	c-5.472-7.4-13.498-12.227-22.6-13.59c-9.104-1.364-18.19,0.899-25.59,6.371c-7.399,5.472-12.226,13.498-13.59,22.6l-20.404,136.208
	L228.431,30.128c-2.388-18.848-19.667-32.243-38.513-29.852c-9.13,1.156-17.264,5.8-22.902,13.074s-8.106,16.308-6.949,25.438
	l14.767,116.561c-5.685-3.446-12.251-5.175-19.043-4.935c-9.198,0.329-17.717,4.22-23.988,10.956
	c-6.271,6.736-9.543,15.511-9.215,24.709l0.049,1.376c-6.057-4.491-13.61-7.045-21.71-6.754
	c-18.986,0.679-33.881,16.678-33.202,35.665l3.795,93.476c1.493,41.378,17.299,81.352,44.508,112.562
	c1.285,1.474,3.089,2.229,4.902,2.229c1.515,0,3.037-0.527,4.269-1.601c2.706-2.359,2.987-6.465,0.628-9.171
	c-25.27-28.985-39.944-66.111-41.317-104.542c-0.001-0.038-0.003-0.077-0.005-0.115l-3.788-93.302
	c-0.422-11.823,8.853-21.786,20.675-22.209c11.796-0.415,21.78,8.848,22.208,20.667l1.36,38.049
	c0.125,3.508,3.009,6.268,6.492,6.268c0.079,0,0.158-0.001,0.237-0.004c3.587-0.128,6.392-3.141,6.264-6.729l-2.372-66.329
	c-0.205-5.727,1.833-11.191,5.738-15.386c3.905-4.195,9.209-6.617,14.937-6.822c5.727-0.202,11.191,1.833,15.386,5.738
	c3.324,3.094,5.513,7.074,6.39,11.441l8.537,67.388c0.451,3.562,3.707,6.086,7.265,5.631c3.562-0.451,6.083-3.704,5.631-7.265
	L172.963,37.155c-0.72-5.686,0.817-11.311,4.328-15.841c3.511-4.529,8.575-7.42,14.261-8.141
	c11.734-1.485,22.495,6.852,23.982,18.589l24.174,190.814c0.655,5.168,4.911,8.961,10.12,9.02c5.182,0.097,9.549-3.637,10.319-8.789
	l23.28-155.4c0.849-5.667,3.854-10.665,8.462-14.072s10.268-4.814,15.935-3.967c5.668,0.849,10.665,3.854,14.072,8.462
	c3.408,4.608,4.816,10.267,3.967,15.935l-36.245,241.952c-0.531,3.55,1.915,6.859,5.466,7.391c0.326,0.049,0.65,0.073,0.971,0.073
	c3.164,0,5.938-2.314,6.421-5.538l12.618-84.234l5.842,0.589c7.237,0.729,13.841,4.523,18.115,10.409
	c4.276,5.889,5.842,13.347,4.295,20.461l-15.74,72.29c-0.019,0.087-0.036,0.175-0.052,0.264
	c-5.609,32.1-26.837,58.947-56.783,71.817c-3.298,1.417-4.823,5.24-3.405,8.538c1.058,2.461,3.455,3.935,5.975,3.935
	c0.856,0,1.727-0.17,2.563-0.53c33.951-14.591,58.03-45.009,64.433-81.388l15.713-72.163
	C358.382,256.9,356.021,245.651,349.569,236.768z"/>
<g>
</g>
<g>
</g>
<g>
</g>
<g>
</g>
<g>
</g>
<g>
</g>
<g>
</g>
<g>
</g>
<g>
</g>
<g>
</g>
<g>
</g>
<g>
</g>
<g>
</g>
<g>
</g>
<g>
</g>
</svg>
