<?xml version="1.0" encoding="utf-8"?>
<!-- Generator: Adobe Illustrator 19.0.1, SVG Export Plug-In . SVG Version: 6.00 Build 0)  -->
<svg version="1.1" id="Capa_1" xmlns="http://www.w3.org/2000/svg" xmlns:xlink="http://www.w3.org/1999/xlink" x="0px" y="0px"
	 viewBox="-94 186.1 421.9 421.9" style="enable-background:new -94 186.1 421.9 421.9;" xml:space="preserve">
<path d="M101.6,254.9H8.5c-23.9,0-47.3,8.3-65.8,23.3s-31.5,36.2-36.4,59.5c-0.1,0.5-0.1,1-0.1,1.4c0,3.1,2.1,5.8,5.2,6.4
	c3.5,0.8,7-1.5,7.7-5c4.3-20.4,15.6-38.9,31.9-52.1S-12.3,268,8.6,268h93.1c12.2,0,22.2,10,22.2,22.2s-9.9,22.2-22.2,22.2H27.8
	c-3.6,0-6.5,2.9-6.5,6.5s2.9,6.5,6.5,6.5h233.3c11.2,0,20.2,9,20.2,20.2s-9.1,20.2-20.2,20.2H84.9c-3.6,0-6.5,2.9-6.5,6.5
	s2.9,6.5,6.5,6.5h209.8c11.2,0,20.2,9.1,20.2,20.2c0,11.2-9.1,20.2-20.2,20.2H93.6c-3.6,0-6.5,2.9-6.5,6.5s2.9,6.5,6.5,6.5h159.5
	c11.2,0,20.2,9.1,20.2,20.2c0,11.2-9.1,20.2-20.2,20.2H82.4c-3.6,0-6.5,2.9-6.5,6.5s2.9,6.5,6.5,6.5h116.7
	c11.2,0,20.2,9.1,20.2,20.2c0,11.2-9.1,20.2-20.2,20.2H17.5c-36.6,0-72.5-12.7-100.9-35.8c-2.7-2.2-6.8-1.8-9.1,1
	c-1,1.2-1.5,2.7-1.5,4.1c0,1.9,0.8,3.8,2.4,5.1c30.8,25,69.5,38.7,109.1,38.7h181.6c18.3,0,33.2-14.9,33.2-33.2
	c0-7.6-2.6-14.6-6.9-20.2h27.7c18.3,0,33.2-14.9,33.2-33.2c0-7.6-2.6-14.6-6.9-20.2h15.3c18.3,0,33.2-14.9,33.2-33.2
	c0-18.3-14.9-33.2-33.2-33.2h-7.3c4.3-5.6,6.9-12.6,6.9-20.2c0-18.3-14.9-33.2-33.2-33.2H129c4.9-6,7.9-13.8,7.9-22.2
	C136.9,270.8,121.1,255,101.6,254.9z"/>
</svg>
